STARTFONT 2.1
COMMENT
COMMENT  This font is copyrighted by its author, who reserves all rights under
COMMENT  national and international copyright laws.
COMMENT
COMMENT  Produced with bdfedit, a tcl/tk font editing program
COMMENT    written by Thomas A. Fine
COMMENT    Email to my last name at head.cfa.harvard.edu
COMMENT    http://hea-www.harvard.edu/~fine/
FONT UNTITLED
SIZE 13 72 72
FONTBOUNDINGBOX 9 12 0 -3
STARTPROPERTIES 11
FOUNDRY "Fine"
FAMILY_NAME ""
WEIGHT_NAME "Medium"
SLANT "R"
SETWIDTH_NAME "Normal"
SPACING "c"
CHARSET_REGISTRY "ISO-8859"
CHARSET_ENCODING "1"
COPYRIGHT "Designer of this font retains full rights under the law"
FONT_ASCENT  9
FONT_DESCENT 3
ENDPROPERTIES
CHARS 68
STARTCHAR C024
ENCODING 20
SWIDTH 307 0
DWIDTH 4 0
BBX 0 0 0 0
BITMAP
ENDCHAR
STARTCHAR C040
ENCODING 32
SWIDTH 230 0
DWIDTH 3 0
BBX 0 0 0 0
BITMAP
ENDCHAR
STARTCHAR C053
ENCODING 43
SWIDTH 384 0
DWIDTH 5 0
BBX 4 3 0 1
BITMAP
60
f0
60
ENDCHAR
STARTCHAR C055
ENCODING 45
SWIDTH 307 0
DWIDTH 4 0
BBX 3 3 0 1
BITMAP
a0
40
a0
ENDCHAR
STARTCHAR C060
ENCODING 48
SWIDTH 461 0
DWIDTH 6 0
BBX 5 5 0 0
BITMAP
70
d8
d8
d8
70
ENDCHAR
STARTCHAR C061
ENCODING 49
SWIDTH 384 0
DWIDTH 5 0
BBX 4 6 0 0
BITMAP
60
e0
60
60
60
f0
ENDCHAR
STARTCHAR C062
ENCODING 50
SWIDTH 461 0
DWIDTH 6 0
BBX 5 5 0 0
BITMAP
f0
18
70
c0
f8
ENDCHAR
STARTCHAR C063
ENCODING 51
SWIDTH 461 0
DWIDTH 6 0
BBX 5 5 0 0
BITMAP
f0
18
70
18
f0
ENDCHAR
STARTCHAR C064
ENCODING 52
SWIDTH 461 0
DWIDTH 6 0
BBX 5 5 0 0
BITMAP
d8
d8
f8
18
18
ENDCHAR
STARTCHAR C065
ENCODING 53
SWIDTH 461 0
DWIDTH 6 0
BBX 5 5 0 0
BITMAP
f8
c0
f0
18
f0
ENDCHAR
STARTCHAR C066
ENCODING 54
SWIDTH 461 0
DWIDTH 6 0
BBX 5 5 0 0
BITMAP
70
c0
f0
d8
70
ENDCHAR
STARTCHAR C067
ENCODING 55
SWIDTH 461 0
DWIDTH 6 0
BBX 5 5 0 0
BITMAP
f8
18
30
60
60
ENDCHAR
STARTCHAR C070
ENCODING 56
SWIDTH 461 0
DWIDTH 6 0
BBX 5 5 0 0
BITMAP
70
d8
70
d8
70
ENDCHAR
STARTCHAR C071
ENCODING 57
SWIDTH 461 0
DWIDTH 6 0
BBX 5 5 0 0
BITMAP
70
d8
78
18
70
ENDCHAR
STARTCHAR C072
ENCODING 58
SWIDTH 230 0
DWIDTH 3 0
BBX 2 3 0 1
BITMAP
c0
00
c0
ENDCHAR
STARTCHAR C073
ENCODING 59
SWIDTH 230 0
DWIDTH 3 0
BBX 2 4 0 0
BITMAP
c0
00
c0
80
ENDCHAR
STARTCHAR C101
ENCODING 65
SWIDTH 461 0
DWIDTH 6 0
BBX 5 5 0 0
BITMAP
70
d8
f8
d8
d8
ENDCHAR
STARTCHAR C102
ENCODING 66
SWIDTH 461 0
DWIDTH 6 0
BBX 5 5 0 0
BITMAP
f0
d8
f0
d8
f0
ENDCHAR
STARTCHAR C103
ENCODING 67
SWIDTH 384 0
DWIDTH 5 0
BBX 4 5 0 0
BITMAP
70
c0
c0
c0
70
ENDCHAR
STARTCHAR C104
ENCODING 68
SWIDTH 461 0
DWIDTH 6 0
BBX 5 5 0 0
BITMAP
f0
d8
d8
d8
f0
ENDCHAR
STARTCHAR C105
ENCODING 69
SWIDTH 384 0
DWIDTH 5 0
BBX 4 5 0 0
BITMAP
f0
c0
e0
c0
f0
ENDCHAR
STARTCHAR C106
ENCODING 70
SWIDTH 384 0
DWIDTH 5 0
BBX 4 5 0 0
BITMAP
f0
c0
e0
c0
c0
ENDCHAR
STARTCHAR C107
ENCODING 71
SWIDTH 461 0
DWIDTH 6 0
BBX 5 5 0 0
BITMAP
78
c0
d8
d8
78
ENDCHAR
STARTCHAR C110
ENCODING 72
SWIDTH 461 0
DWIDTH 6 0
BBX 5 5 0 0
BITMAP
d8
d8
f8
d8
d8
ENDCHAR
STARTCHAR C111
ENCODING 73
SWIDTH 230 0
DWIDTH 3 0
BBX 2 5 0 0
BITMAP
c0
c0
c0
c0
c0
ENDCHAR
STARTCHAR C112
ENCODING 74
SWIDTH 461 0
DWIDTH 6 0
BBX 5 5 0 0
BITMAP
18
18
18
d8
70
ENDCHAR
STARTCHAR C113
ENCODING 75
SWIDTH 461 0
DWIDTH 6 0
BBX 5 5 0 0
BITMAP
d8
f0
e0
f0
d8
ENDCHAR
STARTCHAR C114
ENCODING 76
SWIDTH 384 0
DWIDTH 5 0
BBX 4 5 0 0
BITMAP
c0
c0
c0
c0
f0
ENDCHAR
STARTCHAR C115
ENCODING 77
SWIDTH 692 0
DWIDTH 9 0
BBX 8 5 0 0
BITMAP
e6
db
db
db
db
ENDCHAR
STARTCHAR C116
ENCODING 78
SWIDTH 461 0
DWIDTH 6 0
BBX 5 5 0 0
BITMAP
f0
d8
d8
d8
d8
ENDCHAR
STARTCHAR C117
ENCODING 79
SWIDTH 461 0
DWIDTH 6 0
BBX 5 5 0 0
BITMAP
70
d8
d8
d8
70
ENDCHAR
STARTCHAR C120
ENCODING 80
SWIDTH 461 0
DWIDTH 6 0
BBX 5 5 0 0
BITMAP
f0
d8
f0
c0
c0
ENDCHAR
STARTCHAR C121
ENCODING 81
SWIDTH 461 0
DWIDTH 6 0
BBX 5 6 0 -1
BITMAP
70
d8
d8
d8
70
38
ENDCHAR
STARTCHAR C122
ENCODING 82
SWIDTH 461 0
DWIDTH 6 0
BBX 5 5 0 0
BITMAP
f0
d8
f0
d8
d8
ENDCHAR
STARTCHAR C123
ENCODING 83
SWIDTH 384 0
DWIDTH 5 0
BBX 4 5 0 0
BITMAP
70
c0
60
30
e0
ENDCHAR
STARTCHAR C124
ENCODING 84
SWIDTH 384 0
DWIDTH 5 0
BBX 4 5 0 0
BITMAP
f0
60
60
60
60
ENDCHAR
STARTCHAR C125
ENCODING 85
SWIDTH 461 0
DWIDTH 6 0
BBX 5 5 0 0
BITMAP
d8
d8
d8
d8
70
ENDCHAR
STARTCHAR C126
ENCODING 86
SWIDTH 461 0
DWIDTH 6 0
BBX 5 5 0 0
BITMAP
d8
d8
d8
70
20
ENDCHAR
STARTCHAR C127
ENCODING 87
SWIDTH 692 0
DWIDTH 9 0
BBX 8 5 0 0
BITMAP
db
db
db
db
66
ENDCHAR
STARTCHAR C130
ENCODING 88
SWIDTH 461 0
DWIDTH 6 0
BBX 5 5 0 0
BITMAP
d8
70
20
70
d8
ENDCHAR
STARTCHAR C131
ENCODING 89
SWIDTH 538 0
DWIDTH 7 0
BBX 6 5 0 0
BITMAP
cc
cc
78
30
30
ENDCHAR
STARTCHAR C132
ENCODING 90
SWIDTH 461 0
DWIDTH 6 0
BBX 5 5 0 0
BITMAP
f8
30
60
c0
f8
ENDCHAR
STARTCHAR C141
ENCODING 97
SWIDTH 461 0
DWIDTH 6 0
BBX 5 4 0 0
BITMAP
78
d8
d8
78
ENDCHAR
STARTCHAR C142
ENCODING 98
SWIDTH 461 0
DWIDTH 6 0
BBX 5 5 0 0
BITMAP
c0
f0
d8
d8
f0
ENDCHAR
STARTCHAR C143
ENCODING 99
SWIDTH 384 0
DWIDTH 5 0
BBX 4 4 0 0
BITMAP
70
c0
c0
70
ENDCHAR
STARTCHAR C144
ENCODING 100
SWIDTH 461 0
DWIDTH 6 0
BBX 5 5 0 0
BITMAP
18
78
d8
d8
78
ENDCHAR
STARTCHAR C145
ENCODING 101
SWIDTH 461 0
DWIDTH 6 0
BBX 5 4 0 0
BITMAP
78
d0
e0
78
ENDCHAR
STARTCHAR C146
ENCODING 102
SWIDTH 384 0
DWIDTH 5 0
BBX 4 5 0 0
BITMAP
30
60
f0
60
60
ENDCHAR
STARTCHAR C147
ENCODING 103
SWIDTH 461 0
DWIDTH 6 0
BBX 5 5 0 -1
BITMAP
78
d8
78
18
f0
ENDCHAR
STARTCHAR C150
ENCODING 104
SWIDTH 461 0
DWIDTH 6 0
BBX 5 5 0 0
BITMAP
c0
f0
d8
d8
d8
ENDCHAR
STARTCHAR C151
ENCODING 105
SWIDTH 230 0
DWIDTH 3 0
BBX 2 5 0 0
BITMAP
c0
00
c0
c0
c0
ENDCHAR
STARTCHAR C152
ENCODING 106
SWIDTH 307 0
DWIDTH 4 0
BBX 3 6 0 -1
BITMAP
60
00
60
60
60
c0
ENDCHAR
STARTCHAR C153
ENCODING 107
SWIDTH 461 0
DWIDTH 6 0
BBX 5 5 0 0
BITMAP
c0
d8
f0
f0
d8
ENDCHAR
STARTCHAR C154
ENCODING 108
SWIDTH 230 0
DWIDTH 3 0
BBX 2 5 0 0
BITMAP
c0
c0
c0
c0
c0
ENDCHAR
STARTCHAR C155
ENCODING 109
SWIDTH 692 0
DWIDTH 9 0
BBX 8 4 0 0
BITMAP
e6
db
db
db
ENDCHAR
STARTCHAR C156
ENCODING 110
SWIDTH 461 0
DWIDTH 6 0
BBX 5 4 0 0
BITMAP
f0
d8
d8
d8
ENDCHAR
STARTCHAR C157
ENCODING 111
SWIDTH 692 0
DWIDTH 9 0
BBX 5 4 0 0
BITMAP
70
d8
d8
70
ENDCHAR
STARTCHAR C160
ENCODING 112
SWIDTH 461 0
DWIDTH 6 0
BBX 5 5 0 -1
BITMAP
f0
d8
d8
f0
c0
ENDCHAR
STARTCHAR C161
ENCODING 113
SWIDTH 461 0
DWIDTH 6 0
BBX 5 5 0 -1
BITMAP
78
d8
d8
78
18
ENDCHAR
STARTCHAR C162
ENCODING 114
SWIDTH 384 0
DWIDTH 5 0
BBX 4 4 0 0
BITMAP
f0
c0
c0
c0
ENDCHAR
STARTCHAR C163
ENCODING 115
SWIDTH 384 0
DWIDTH 5 0
BBX 4 4 0 0
BITMAP
70
c0
30
e0
ENDCHAR
STARTCHAR C164
ENCODING 116
SWIDTH 384 0
DWIDTH 5 0
BBX 4 4 0 0
BITMAP
60
f0
60
60
ENDCHAR
STARTCHAR C165
ENCODING 117
SWIDTH 461 0
DWIDTH 6 0
BBX 5 4 0 0
BITMAP
d8
d8
d8
78
ENDCHAR
STARTCHAR C166
ENCODING 118
SWIDTH 461 0
DWIDTH 6 0
BBX 5 4 0 0
BITMAP
d8
d8
70
20
ENDCHAR
STARTCHAR C167
ENCODING 119
SWIDTH 692 0
DWIDTH 9 0
BBX 8 4 0 0
BITMAP
db
db
db
67
ENDCHAR
STARTCHAR C170
ENCODING 120
SWIDTH 461 0
DWIDTH 6 0
BBX 5 4 0 0
BITMAP
d8
70
70
d8
ENDCHAR
STARTCHAR C171
ENCODING 121
SWIDTH 461 0
DWIDTH 6 0
BBX 5 5 0 -1
BITMAP
d8
d8
78
18
f0
ENDCHAR
STARTCHAR C172
ENCODING 122
SWIDTH 461 0
DWIDTH 6 0
BBX 5 4 0 0
BITMAP
f8
30
60
f8
ENDCHAR
ENDFONT
